PathFileType	4	(X/Y/Z)	pose_F01_0-89.trc
DataRate	CameraRate	NumFrames	NumMarkers	Units	OrigDataRate	OrigDataStartFrame	OrigNumFrames
30	30	11	21	m	30	12	89
Frame#	Time	CHip			RHip			RKnee			RAnkle			RBigToe			RSmallToe			RHeel			LHip			LKnee			LAnkle			LBigToe			LSmallToe			LHeel			Neck			Nose			RShoulder			RElbow			RWrist			LShoulder			LElbow			LWrist			
		X1	Y1	Z1	X2	Y2	Z2	X3	Y3	Z3	X4	Y4	Z4	X5	Y5	Z5	X6	Y6	Z6	X7	Y7	Z7	X8	Y8	Z8	X9	Y9	Z9	X10	Y10	Z10	X11	Y11	Z11	X12	Y12	Z12	X13	Y13	Z13	X14	Y14	Z14	X15	Y15	Z15	X16	Y16	Z16	X17	Y17	Z17	X18	Y18	Z18	X19	Y19	Z19	X20	Y20	Z20	X21	Y21	Z21	
12	0.4	-0.22293780014357323	1.8694582040798489	-0.5514228258818918	-0.23675800055162968	1.8669417539926665	-0.4796844481863051	-0.22876886284603318	1.7110379038967038	-0.4737265455259861													-0.20609892106703748	1.870403248093608	-0.6082214644931735	-0.19937798781533883	1.7151611786551708	-0.598202397060543	-0.18509450860995158	1.5662167511088327	-0.5758284506668999	-0.22068075118835317	1.5266195782438063	-0.6115146873432293	-0.20260588001128493	1.5365580360755744	-0.6258058832923049	-0.18196231702494095	1.5563403822496298	-0.5648345591070704	-0.21169727834354676	2.0460369414014763	-0.5554833687134995	-0.2444086183549473	2.1173680226238893	-0.5988435911355922	-0.23137107663718437	2.046650961178997	-0.47199251851843876	-0.233564245682663	1.9504883609262655	-0.44585635449308864	-0.2497855221649362	1.8711375675657975	-0.42931169339813735	-0.19041748024850882	2.0477074289889026	-0.6423902407078661	-1.48301419802638	1.8737821889750537	0.7258168774806023	-0.18101524253029325	1.8816807177165216	-0.6719018381431928
13	0.43333333333333335	-0.22475143872011386	1.868696827534498	-0.5491675325398558	-0.23949370317200808	1.8670639389090185	-0.48051192865860315	-0.2296198429499358	1.7120955498865564	-0.4774614782029486													-0.20882189839157592	1.8696295031426828	-0.6088781704139375	-0.20638627487671887	1.7168320277055147	-0.5954135780281483	-0.18624729344567034	1.5673398287980924	-0.5788685489537307	-0.22476372315742574	1.52624625911769	-0.6158659613385635	-0.20908113208070642	1.5347584036314241	-0.627462208880288	-0.17969190092462894	1.5558328855750714	-0.5671554730793279	-0.21663591711241406	2.0460100434472577	-0.5539255554189305	-0.2445302558763421	2.116530995633912	-0.5991788754250036	-0.236338212630014	2.0466541434387535	-0.47064251022923265	-0.2382330015423713	1.9515584070890757	-0.43609317864515046	-0.2520681441507779	1.8763906007209465	-0.42809084500439565	-0.19250985828018982	2.048084863281808	-0.6400484516565066	-1.48301419802638	1.8737821889750537	0.7258168774806023	-0.18101524253029325	1.8816807177165216	-0.6719018381431928
14	0.4666666666666667	-0.22517782099916836	1.8690982405909686	-0.5403559400475709	-0.23961060528920466	1.8657006801965654	-0.4717270365494138	-0.22900718272014836	1.7108011414560618	-0.46910064308787985													-0.2122296812698623	1.8717926069599071	-0.601389044381483	-0.2186887022999416	1.7183642856331387	-0.608179675994399	-0.18924865628678586	1.5681486565500888	-0.588701850693498	-0.22811057004714208	1.530139317217851	-0.6171431347459023	-0.2111273517134523	1.5378698222440506	-0.6343408234030368	-0.18069515541896683	1.553897275918888	-0.5699872619660704	-0.21874047867166355	2.0458643579574356	-0.551817616528126	-0.25113672490951444	2.1175255327376266	-0.6120602164375178	-0.24142103269622642	2.0467212588363437	-0.4700949296728779	-0.24144095985868547	1.9533897930078647	-0.43785596508787983	-0.2515688608374384	1.8784564003341797	-0.42535489540562454	-0.19251815024216792	2.046844846955472	-0.6396188101483941	-1.5013829675918378	1.8777304487462763	0.7589215262760971	-0.19528792891402053	1.9050810176829862	-0.6913222072796916
15	0.5	-0.2234772909935874	1.8716980212073524	-0.5343833978933777	-0.2398308089169888	1.8682974468017224	-0.4720286915467787	-0.22956040644009532	1.7121681359089809	-0.46857310236769095													-0.2095022884104985	1.87468244178445	-0.6008785891466806	-0.21869392387459985	1.7181956890390746	-0.6082832416150895	-0.1954501566999633	1.5691726716194694	-0.5995602664596933	-0.23568315189469966	1.5308635200677974	-0.6389203778861239	-0.21966338101649643	1.5349427192976015	-0.6507276688574772	-0.18899352264033945	1.553248217860088	-0.5914308812449759	-0.22183111860795843	2.048537460833248	-0.5537681516773816	-0.25321278009270515	2.117102038000157	-0.6181350137541817	-0.2475955903247478	2.046115187862356	-0.4806540608964118	-0.2433126208834891	1.9519665503389128	-0.43539909305497754	-0.25194253910314046	1.871626947478432	-0.41872016578704085	-0.19466362714753246	2.047460341576995	-0.6381131048734234	-1.4823802745049044	1.874184808646155	0.7344104581271061	-0.20956061529774778	1.928481317649451	-0.7107425764161903
16	0.5333333333333333	-0.22099162311413753	1.87294187763445	-0.5367411062660744	-0.23947143946444463	1.870449834031641	-0.47252631220756375	-0.22633508086463439	1.7127698305271084	-0.4678104326759632													-0.20702199510061892	1.874624214019743	-0.6030704874901468	-0.21619589195048905	1.7192842048749144	-0.6109777958215562	-0.20646772160301047	1.5640645171338947	-0.6092257780006767	-0.24503331650994928	1.5218517123195474	-0.6418811905816181	-0.2274228336074974	1.5300344425867651	-0.6551999671324252	-0.19512516552796866	1.5507737484454567	-0.589528624258992	-0.22541090487335555	2.0471044811346784	-0.5652153047025323	-0.25692827363568765	2.1145366993687773	-0.6204577473700353	-0.25132953301229227	2.0461596174167056	-0.48425800194749014	-0.24423629214197173	1.949514546486055	-0.4378538849118664	-0.2524707726653232	1.8661610011130076	-0.4205481946197306	-0.19332583178619048	2.0492401237128406	-0.6431646297957719	-1.4004646528340756	1.8785569694843223	0.6006113600316743	-1.089383952259732	1.8810782136431312	0.11510773565636687
17	0.5666666666666667	-0.2195822062240462	1.8734533055864357	-0.5335280645813085	-0.2390188878813828	1.8713203869381987	-0.47254261961012267	-0.22618576997610404	1.706631017330536	-0.46703313704051935													-0.20355930457288376	1.8777930281573683	-0.5937446037224972	-0.2114861266180374	1.7180523090971993	-0.6114923940771435	-0.20673812059129723	1.5567290124165132	-0.6081497786446967	-0.24546941957456908	1.5148032350387224	-0.6407872171031607	-0.2287581967101435	1.5197390058780742	-0.6617166375820679	-0.1957697916337327	1.5460426857460055	-0.592690998821321	-0.22740086329995698	2.044080853210549	-0.570732909669535	-0.2647363526956563	2.110016485975635	-0.6349365793956048	-0.2564565272496924	2.0481032885079795	-0.5004733809939478	-0.24565403309750106	1.9538183940784826	-0.4426398505627975	-0.2529137521612142	1.8685539170442937	-0.42130812752799207	-0.19419602946490983	2.0469653460324495	-0.6454617672041472	-1.2942676586330493	1.8800693242645803	0.4265158614851788	-0.24757143122919426	1.991660025815813	-0.7917268175690072
18	0.6	-0.21738984851061893	1.8726629591996822	-0.535579234495563	-0.23505891958172256	1.8684267334695985	-0.4765988767516948	-0.22387075886670169	1.710035246958533	-0.46989260362146473													-0.20059876183040376	1.8754926486868124	-0.5925246449439752	-0.20570835162615045	1.71458478104175	-0.6086847202853679	-0.20596312909147424	1.557802593872271	-0.6095844235894543	-0.2437853935626303	1.5150549703044875	-0.6470263847603588	-0.22826298772641224	1.5200614803542374	-0.6626935936794736	-0.19956985829016982	1.5461824488067546	-0.5893795712668274	-0.23011777257194688	2.043422987956875	-0.5795862683907317	-0.266845902854189	2.107553455556339	-0.6407238917381691	-0.25651209993636365	2.0459313214559445	-0.5080110127561452	-0.24745177505861024	1.95273679732918	-0.4483612030962575	-0.2493976531775987	1.8725463427497948	-0.42639497639417523	-0.20140701237436565	2.0462646438967083	-0.6613136930002926	-1.23024580726002	1.8853421479268937	0.3163084581061824	-0.26585325796770176	1.9914413300927598	-0.7933041744432001
19	0.6333333333333333	-0.21465835299136213	1.8718078488353578	-0.543269238249223	-0.22955244910259562	1.868271266494535	-0.4833372735651905	-0.22283623227125166	1.7126520879254605	-0.4672102307634876													-0.19855193113550884	1.8726062352226032	-0.6032009083865415	-0.20144202390801993	1.7128988675027768	-0.6043744448335873	-0.20643336775952695	1.5550112533249643	-0.6083096362049769	-0.24308078689710633	1.5135650662667475	-0.6431551904206045	-0.22638227861284096	1.5187348996849863	-0.6641290441595414	-0.1971552296642288	1.5436542477631032	-0.5869628253947747	-0.23278748555787798	2.043338064942982	-0.5972026601782797	-0.2724846989876325	2.106067684254851	-0.6582869408477917	-0.2584678528535427	2.0438080110282684	-0.5139093971784495	-0.2497958566755479	1.9493109225480996	-0.46312137468896825	-0.25004691589698	1.865052253911639	-0.4368916206106263	-0.2010014877853655	2.0424542706711266	-0.6686572884074813	-0.20751244303805094	1.9808204731317574	-0.7495029190011887	-0.2867972248790702	1.973931663397714	-0.7912635483601181
20	0.6666666666666666	-0.21293053436244783	1.8668331555235564	-0.544940776501684	-0.22865470723449147	1.8648644937317194	-0.4882093277036059	-0.22222139412244946	1.709893725808786	-0.47170795375414126													-0.1967872615300251	1.8703907030323228	-0.6051673093638301	-0.2004544188775929	1.7127270055085546	-0.6012013846947136	-0.2062490781344639	1.5564638086963507	-0.6089305004893172	-0.2447519030878255	1.5149771026920331	-0.650292248837624	-0.2279901694712084	1.5200388088757484	-0.6712679272242105	-0.2001318550237715	1.545744647486198	-0.5886196709523751	-0.23384369545554803	2.0406786412276054	-0.6000915138868502	-0.2756982710881596	2.0985881405623883	-0.6578276110943402	-0.26236139570746425	2.0418756139793186	-0.5253795300416548	-0.24691651660240424	1.94847579590406	-0.47077447993273097	-0.24730711128841104	1.866358565095354	-0.4361202435129311	-0.20441707705890955	2.041089822637827	-0.6806603170204171	-1.1677561284154983	1.8816606863957324	0.21440103398045351	-0.29719112489707994	1.9544802383086661	-0.8005583211283944
21	0.7	-0.2120837020715399	1.867076742463688	-0.5504633449443745	-0.22711388275695513	1.8641357500573754	-0.49034339041185715	-0.21999848852055498	1.7074197506919515	-0.46964031407589296													-0.195942171224399	1.867943723458894	-0.6102979053938127	-0.19919473217920322	1.7101493909524574	-0.6021437282221969	-0.20492068509905073	1.5554239202292486	-0.6096074167573973	-0.24326399955739536	1.5148649411385782	-0.642965683400839	-0.2263245550406509	1.5186378863367378	-0.6641931205532813	-0.19852596783623697	1.5434790417612179	-0.5892429682014769	-0.23477639720775884	2.041108518704566	-0.6031829618039374	-0.2806402982098009	2.0944560168162787	-0.6640890642101354	-0.263541237948842	2.040599647877097	-0.5286821721829723	-0.24499179436342872	1.9467195300571956	-0.4725715530120466	-0.24941896407838324	1.8682685248519584	-0.4428291685378261	-0.20614823802481388	2.039396766709782	-0.6863846014387726	-1.1551343776262128	1.8802949158516207	0.1960436454392134	-0.2985331767381625	1.9389520609424586	-0.7914181148993068
22	0.7333333333333333	-0.21313126728700002	1.8659554340697972	-0.5535684466755287	-0.22809798543474458	1.864171972498877	-0.4936112220452326	-0.21996545920831007	1.7118429854404813	-0.47441076691608103													-0.1958637102721949	1.868149391538192	-0.6103460656360501	-0.19849852450999228	1.7140380577889	-0.6034350915041836	-0.2064154444057197	1.5577652706708383	-0.6087081023896078	-0.24400288484762925	1.5135871902765625	-0.6463935359856576	-0.22724689425767658	1.5185773110012484	-0.667421435055659	-0.20016528680727855	1.5463203458271964	-0.5883255033268828	-0.23484973845800328	2.0402261090381177	-0.6033694327890208	-0.28265507341066903	2.091876740274217	-0.6698539112800074	-0.26452372681446695	2.0366719584655417	-0.5308249852478286	-0.2490144286206793	1.946476719230628	-0.4682858853360984	-0.2463042358663904	1.8676542078212435	-0.44180220755977434	-0.20624388434906454	2.0380207884354324	-0.6865864110170908	-1.1625587863053461	1.8804825043748352	0.2086153638504926	-0.2932155886166061	1.934375749399278	-0.7922100189177091
